Patient4_TMGait_0pt6_02_right_01_EMG.mot
version=1
nRows=20
nColumns=33
inDegrees=no
endheader
time	1LAddLong	2LGlutMax	3LGlutMed	4LIliopsoas	5LSemiMemb	6LBicFemLong	7LRecFem	8LVastMed	9LVastLat	10LGasMed	11LTibAnt	12lTibPost	13LPeroneusLong	14LSol	15LExtDigLong	16LFlexDigLong	17RAddLong	18RGlutMax	19RGlutMed	20RIliopsoas	21RSemiMemb	22RBicFemLong	23RRecFem	24RVastMed	25RVastLat	26RGasMed	27RTibAnt	28RTibPost	29RPeroneusLong	30RSol	31RExtDigLong	32RFlexDigLong
1.815	0.008392	-0.03891	-0.22339	-0.036163	0.010376	-0.055084	0.10391	0.014343	0.033722	-0.024261	0.031281	0.000458	0.38086	0.12878	-0.057373	-0.007629	-0.042877	-0.12665	-0.11841	-0.12634	0.4155	0.2034	0.035858	0.074005	-0.000763	-0.005646	-0.32105	-0.007477	0.15289	-0.013733	-0.005341	0.006409
1.816	0.010376	-0.039215	-0.20462	0.002594	0.012665	-0.031128	0.121	0.002441	0.030212	0.014954	0.045471	-0.000458	0.36514	-0.003204	0.065308	-0.001678	-0.018158	-0.13001	-0.045319	-0.19302	0.31754	0.10147	0.048218	-0.027771	-0.010986	-0.003967	-0.57846	-0.00351	0.01297	0.069275	0.000458	0.00824
1.817	0.006409	-0.020599	-0.15518	0.004272	0.037384	-0.046082	0.13397	0.00824	0.00412	0.009613	0.037079	0.010376	0.079803	0.003967	0.054626	-0.005798	-0.019226	-0.099945	0.17563	-0.16968	0.1471	0.050812	0.068665	0	-0.021362	-0.002594	-0.039673	-0.006256	-0.32272	0.15076	0.00061	0.005798
1.818	0.006409	-0.032196	-0.15595	0.029297	0.050354	-0.031433	0.12497	-0.002747	-0.015564	0.051727	-0.019531	0.000916	0.11658	-0.06897	0.095825	-0.001984	0.046234	-0.072784	0.17593	-0.24612	0.12314	0.057678	0.041962	-0.029755	-0.019379	-0.010376	-0.078583	-0.009003	-0.046082	0.14175	-0.00412	0.007019
1.819	-0.000763	0.002441	-0.20309	-0.000763	-0.004425	0.053558	0.15732	-0.002441	-0.02655	-0.1416	-0.047455	-0.002899	-0.13138	-0.10193	0.068665	-0.00412	0.12451	-0.10803	-0.38711	-0.088043	0.088959	0.027161	0.036926	-0.009308	-0.028687	-0.00885	-0.21393	-0.001068	0.017853	0.071259	0.002594	-0.002136
1.82	-0.005951	0.01358	-0.19882	0.012512	-0.067902	0.089264	0.13016	0.00412	-0.027008	-0.14679	0.014038	-0.00061	-0.76523	-0.015564	0.15015	-0.00824	0.24078	-0.16449	-0.52597	0.19653	0.04837	0.016632	0.031738	-0.034027	-0.027466	-0.010223	-0.12955	-0.006714	-0.069733	-0.06958	-0.001984	-0.006104
1.821	0.004883	0.027161	-0.18875	0.014343	-0.085297	0.06958	0.089874	0.005188	-0.002136	0.1973	0.009613	0.006866	-0.4277	0.018158	0.050354	-0.005493	0.23025	-0.11353	-0.33203	0.35309	-0.001221	0.071259	0.028076	-0.090179	-0.015411	-0.010681	-0.066833	-0.003815	-0.02121	-0.089111	-0.003662	-0.003052
1.822	0.002594	0.014954	-0.16815	0.021057	0.016632	0.037689	0.112	0.009613	0.047913	0.24796	0.007935	0.007935	-0.019379	-0.10391	-0.007629	-0.000153	0.13672	-0.074158	-0.14023	0.3064	-0.086365	0.11902	0.05661	-0.090027	-0.01358	-0.00946	0.014496	-0.005188	0.24353	-0.002899	-0.009003	0.005341
1.823	0.003662	0.007477	-0.11749	0.035553	0.13184	-0.027466	0.12604	0.006561	0.005646	0.16068	0.048523	0.015717	-0.20844	-0.35812	-0.020905	-0.001984	0.037384	-0.028992	-0.054626	0.27084	-0.060272	0.14801	0.022736	-0.09964	-0.005035	-0.013428	0.042419	-0.003967	0.33814	0	-0.003204	0.005035
1.824	-0.001221	0.01297	-0.069427	0.019073	0.093231	0.007935	0.16998	0.014343	-0.019531	0.43121	0.027618	0.014648	-0.09079	-0.31769	-0.074463	0.013123	-0.088959	-0.036316	-0.18753	0.33341	0.062408	0.10666	0.038757	-0.054321	-0.00351	-0.005493	0.21332	-0.009003	-0.17349	0.052185	-0.002899	0.002441
1.825	0.003815	0.043182	-0.094452	0.001831	-0.002289	0.052338	0.17563	0.001068	-0.014954	0.19073	-0.021667	0.017853	0.045776	-0.3067	-0.18265	0.008545	-0.14435	-0.052185	-0.19028	0.22339	-0.001373	0.099182	0.014954	-0.023041	-0.002747	-0.001373	0.26779	-0.008698	-0.82184	0.033722	-0.000763	-0.002136
1.826	0.001373	0.022278	-0.065765	-0.003357	0.046387	0.13336	0.16403	0.012054	-0.046082	0.073853	-0.072937	0.02182	0.10651	-0.289	-0.1004	0.009155	-0.13458	-0.090027	-0.19104	0.041809	-0.002289	-0.00824	0.074005	-0.040588	-0.019989	0.001526	0.40253	-0.004578	-0.56122	-0.023804	-0.002594	0.004883
1.827	-0.002899	0.026855	-0.15869	0.018311	0.057373	0.099792	0.18723	0.010223	-0.049896	-0.13306	-0.040588	0.019531	0.10895	-0.054169	0.034027	-0.005341	-0.12589	-0.091705	-0.12558	-0.021973	0.020905	-0.093384	0.04364	-0.036774	-0.013123	-0.010986	0.51926	-0.007019	-0.31647	0.051575	-0.001221	-0.001221
1.828	-0.001068	-0.020599	-0.22171	-0.007629	0.046387	0.04715	0.10315	0.015564	-0.071564	0.003052	-0.014801	0.014801	0.077362	0.23224	0.031891	-0.00824	-0.098114	-0.14328	-0.027161	0.000305	0.014496	-0.16647	0.038147	-0.0383	-0.010071	-0.016022	0.3186	-0.005951	-0.22217	0.089722	-0.007019	0.002899
1.829	0.001984	0.034943	-0.29129	-0.001678	0.017853	0.018463	0.013123	0.01236	-0.061951	0.060577	0.031433	0.010529	0.15823	0.25238	0.084076	-0.004272	-0.071564	-0.15076	-0.004425	0.024261	0.034332	-0.13443	0.038605	-0.036926	-0.01358	-0.01297	0.20645	-0.003357	0.089874	0.001984	-0.002899	-0.00061
1.83	-0.001831	0.11627	-0.13336	-0.007782	-0.007019	-0.004578	0.066376	0.015564	0.003357	-0.015869	0.066223	0.01358	-0.023041	0.084076	0.11856	0.018921	-0.063324	-0.050659	0.046997	0.060425	0.068207	-0.10513	0.06073	0.002594	-0.010834	-0.003662	-0.04303	-0.003204	0.38116	-0.11337	-0.005341	0.003662
1.831	-0.003357	0.0737	-0.1828	0.03006	-0.031586	-0.010681	0.041656	0.010834	0.050201	-0.097656	0.058136	0.017242	-0.34271	-0.04837	0.083008	-0.00473	-0.052948	-0.049744	-0.1622	0.070953	0.085144	-0.098724	0.074768	0.004578	-0.005493	-0.007477	-0.15396	-0.002747	0.39749	-0.10117	0.001526	-0.000305
1.832	0.002136	0.054932	-0.042114	0.027466	-0.06958	-0.010223	0.014343	0.010376	0.053558	-0.10956	-0.056	0.002441	-0.08194	-0.1976	-0.13153	0.000458	-0.042419	-0.06485	-0.16327	-0.029297	0.074005	-0.053101	0.012054	-0.022736	-0.002747	-0.014191	-0.28046	0.000916	0.20294	-0.047607	0	0.003357
1.833	-0.006409	-0.000153	0.112	0.017853	-0.057678	-0.007935	0.10208	0.01358	0.019531	-0.20966	-0.13428	0.006256	0.13916	-0.20126	-0.013885	-0.000153	-0.038147	-0.090332	0.082397	-0.11337	-0.038147	0.16907	-0.008545	-0.035248	0.011139	-0.012054	-0.28458	-0.006866	-0.21515	-0.029144	-0.002899	0.009308
1.834	0.002899	-0.023651	0.060425	0.009766	-0.010071	-0.011902	0.15854	0.006561	0.006866	-0.16983	-0.022125	0.007477	0.20279	-0.16266	0.11536	0.006714	-0.014343	-0.12299	0.066071	-0.08255	-0.055389	0.13596	-0.006409	-0.06134	-0.001984	0.000305	0.063629	-0.002136	0.1239	-0.10864	0.003967	0.009308
